<svg aria-hidden="true" style="position: absolute; width: 0; height: 0; overflow: hidden;" version="1.1" xmlns="http://www.w3.org/2000/svg" xmlns:xlink="http://www.w3.org/1999/xlink">
<defs>
<symbol id="icon-award" viewBox="0 0 24 24">
<title>award</title>
<path d="M20 8c0-4.4-3.6-8-8-8s-8 3.6-8 8c0 2.6 1.2 4.9 3.1 6.3l-1.1 8.6c-0.1 0.4 0.1 0.8 0.4 1s0.7 0.2 1.1 0l4.5-2.7 4.5 2.7c0.1 0.1 0.3 0.1 0.5 0.1s0.4-0.1 0.5-0.2 0.5-0.6 0.4-1l-1.1-8.5c2-1.4 3.2-3.7 3.2-6.3zM6 8c0-3.3 2.7-6 6-6s6 2.7 6 6-2.7 6-6 6-6-2.7-6-6zM15.7 21.1l-3.2-1.9c-0.3-0.2-0.7-0.2-1 0l-3.2 1.9 0.7-5.7c0.9 0.4 1.9 0.6 3 0.6s2.1-0.2 3-0.6l0.7 5.7z"></path>
</symbol>
<symbol id="icon-bell" viewBox="0 0 24 24">
<title>bell</title>
<path d="M14.2 20.1c-0.5-0.3-1.1-0.1-1.4 0.4s-0.9 0.6-1.4 0.4c-0.2-0.1-0.3-0.2-0.4-0.4-0.3-0.5-0.9-0.6-1.4-0.4-0.5 0.3-0.6 0.9-0.4 1.4 0.3 0.5 0.6 0.8 1.1 1.1s1 0.4 1.5 0.4c1 0 2-0.5 2.6-1.5 0.5-0.5 0.3-1.1-0.2-1.4z"></path>
<path d="M22 16c-1.1 0-2-0.9-2-2v-5c0-4.4-3.6-8-8-8s-8 3.6-8 8v5c0 1.1-0.9 2-2 2-0.6 0-1 0.4-1 1s0.4 1 1 1h20c0.6 0 1-0.4 1-1s-0.4-1-1-1zM5.5 16c0.3-0.6 0.5-1.3 0.5-2v-5c0-3.3 2.7-6 6-6s6 2.7 6 6v5c0 0.7 0.2 1.4 0.5 2h-13z"></path>
</symbol>
<symbol id="icon-check" viewBox="0 0 24 24">
<title>check</title>
<path d="M20.7 5.3c-0.4-0.4-1-0.4-1.4 0l-10.3 10.3-4.3-4.3c-0.4-0.4-1-0.4-1.4 0s-0.4 1 0 1.4l5 5c0.2 0.2 0.4 0.3 0.7 0.3s0.5-0.1 0.7-0.3l11-11c0.4-0.4 0.4-1 0-1.4z"></path>
</symbol>
<symbol id="icon-chevron-down" viewBox="0 0 24 24">
<title>chevron-down</title>
<path d="M18.7 8.3c-0.4-0.4-1-0.4-1.4 0l-5.3 5.3-5.3-5.3c-0.4-0.4-1-0.4-1.4 0s-0.4 1 0 1.4l6 6c0.2 0.2 0.5 0.3 0.7 0.3s0.5-0.1 0.7-0.3l6-6c0.4-0.4 0.4-1 0-1.4z"></path>
</symbol>
<symbol id="icon-chevron-left" viewBox="0 0 24 24">
<title>chevron-left</title>
<path d="M10.4 12l5.3-5.3c0.4-0.4 0.4-1 0-1.4s-1-0.4-1.4 0l-6 6c-0.4 0.4-0.4 1 0 1.4l6 6c0.2 0.2 0.5 0.3 0.7 0.3s0.5-0.1 0.7-0.3c0.4-0.4 0.4-1 0-1.4l-5.3-5.3z"></path>
</symbol>
<symbol id="icon-chevron-right" viewBox="0 0 24 24">
<title>chevron-right</title>
<path d="M15.7 11.3l-6-6c-0.4-0.4-1-0.4-1.4 0s-0.4 1 0 1.4l5.3 5.3-5.3 5.3c-0.4 0.4-0.4 1 0 1.4 0.2 0.2 0.4 0.3 0.7 0.3s0.5-0.1 0.7-0.3l6-6c0.4-0.4 0.4-1 0-1.4z"></path>
</symbol>
<symbol id="icon-chevron-up" viewBox="0 0 24 24">
<title>chevron-up</title>
<path d="M18.7 14.3l-6-6c-0.4-0.4-1-0.4-1.4 0l-6 6c-0.4 0.4-0.4 1 0 1.4s1 0.4 1.4 0l5.3-5.3 5.3 5.3c0.2 0.2 0.5 0.3 0.7 0.3s0.5-0.1 0.7-0.3c0.4-0.4 0.4-1 0-1.4z"></path>
</symbol>
<symbol id="icon-clock" viewBox="0 0 24 24">
<title>clock</title>
<path d="M12 1c-6.1 0-11 4.9-11 11s4.9 11 11 11 11-4.9 11-11-4.9-11-11-11zM12 21c-5 0-9-4-9-9s4-9 9-9c5 0 9 4 9 9s-4 9-9 9z"></path>
<path d="M16.4 13.1l-3.4-1.7v-5.4c0-0.6-0.4-1-1-1s-1 0.4-1 1v6c0 0.4 0.2 0.7 0.6 0.9l4 2c0.1 0.1 0.2 0.1 0.4 0.1 0.4 0 0.7-0.2 0.9-0.6s0-1-0.5-1.3z"></path>
</symbol>
<symbol id="icon-edit-3" viewBox="0 0 24 24">
<title>edit-3</title>
<path d="M3 18h4c0.3 0 0.5-0.1 0.7-0.3l11-11c0.4-0.4 0.4-1 0-1.4l-4-4c-0.4-0.4-1-0.4-1.4 0l-11 11c-0.2 0.2-0.3 0.4-0.3 0.7v4c0 0.6 0.4 1 1 1zM4 13.4l10-10 2.6 2.6-10 10h-2.6v-2.6z"></path>
<path d="M21 21h-18c-0.6 0-1 0.4-1 1s0.4 1 1 1h18c0.6 0 1-0.4 1-1s-0.4-1-1-1z"></path>
</symbol>
<symbol id="icon-filter" viewBox="0 0 24 24">
<title>filter</title>
<path d="M22.9 2.6c-0.2-0.4-0.5-0.6-0.9-0.6h-20c-0.4 0-0.7 0.2-0.9 0.6-0.2 0.3-0.1 0.7 0.1 1l7.8 9.2v6.2c0 0.4 0.2 0.7 0.6 0.9l4 2c0.1 0.1 0.2 0.1 0.4 0.1s0.4 0 0.5-0.1c0.3-0.2 0.5-0.5 0.5-0.9v-8.2l7.8-9.2c0.2-0.3 0.3-0.7 0.1-1zM13.2 11.8c-0.1 0.2-0.2 0.4-0.2 0.7v6.9l-2-1v-5.9c0-0.2-0.1-0.5-0.2-0.6l-6.6-7.9h15.7l-6.7 7.8z"></path>
</symbol>
<symbol id="icon-image" viewBox="0 0 24 24">
<title>image</title>
<path d="M19 2h-14c-1.7 0-3 1.3-3 3v14c0 1.7 1.3 3 3 3h14c1.7 0 3-1.3 3-3v-14c0-1.7-1.3-3-3-3zM4 5c0-0.6 0.4-1 1-1h14c0.6 0 1 0.4 1 1v7.6l-3.3-3.3c-0.4-0.4-1-0.4-1.4 0l-10.6 10.6c-0.4-0.1-0.7-0.5-0.7-0.9v-14zM19 20h-11.6l8.6-8.6 4 4v3.6c0 0.6-0.4 1-1 1z"></path>
<path d="M8.5 11c1.4 0 2.5-1.1 2.5-2.5s-1.1-2.5-2.5-2.5-2.5 1.1-2.5 2.5 1.1 2.5 2.5 2.5zM8.5 8c0.3 0 0.5 0.2 0.5 0.5s-0.2 0.5-0.5 0.5-0.5-0.2-0.5-0.5 0.2-0.5 0.5-0.5z"></path>
</symbol>
<symbol id="icon-instagram" viewBox="0 0 24 24">
<title>instagram</title>
<path d="M17 1h-10c-3.3 0-6 2.7-6 6v10c0 3.3 2.7 6 6 6h10c3.3 0 6-2.7 6-6v-10c0-3.3-2.7-6-6-6zM21 17c0 2.2-1.8 4-4 4h-10c-2.2 0-4-1.8-4-4v-10c0-2.2 1.8-4 4-4h10c2.2 0 4 1.8 4 4v10z"></path>
<path d="M12.8 7c-0.5-0.1-1-0.1-1.5 0-2.7 0.4-4.6 3-4.2 5.7 0.2 1.3 0.9 2.5 2 3.3 0.9 0.6 1.9 1 3 1 0.2 0 0.5 0 0.7-0.1 1.3-0.2 2.5-0.9 3.3-2s1.1-2.4 0.9-3.7c-0.3-2.2-2-3.9-4.2-4.2zM14.5 13.7c-0.5 0.6-1.2 1.1-2 1.2-1.6 0.2-3.2-0.9-3.4-2.5-0.3-1.6 0.9-3.2 2.5-3.4 0.1 0 0.3 0 0.4 0s0.3 0 0.4 0c1.3 0.2 2.3 1.2 2.5 2.5 0.2 0.8 0 1.6-0.4 2.2z"></path>
<path d="M16.8 5.8c-0.2 0.2-0.3 0.4-0.3 0.7s0.1 0.5 0.3 0.7c0.2 0.2 0.5 0.3 0.7 0.3 0.3 0 0.5-0.1 0.7-0.3s0.3-0.5 0.3-0.7c0-0.3-0.1-0.5-0.3-0.7-0.4-0.4-1-0.4-1.4 0z"></path>
</symbol>
<symbol id="icon-link" viewBox="0 0 24 24">
<title>link</title>
<path d="M21.1 2.8c-2.3-2.3-6-2.3-8.3 0l-1.8 1.7c-0.4 0.4-0.4 1 0 1.4s1 0.4 1.4 0l1.7-1.7c1.6-1.5 4-1.5 5.6 0s1.6 4.1 0.1 5.6l-3 3c-0.1 0.1-0.3 0.3-0.4 0.4-1.8 1.3-4.3 1-5.6-0.8-0.3-0.4-1-0.5-1.4-0.2s-0.5 1-0.2 1.4c1.2 1.6 3 2.4 4.8 2.4 1.2 0 2.5-0.4 3.6-1.2 0.2-0.2 0.4-0.4 0.7-0.6l3-3c2.3-2.3 2.2-6.2-0.2-8.4z"></path>
<path d="M11.5 18.1l-1.7 1.7c-1.6 1.5-4 1.5-5.6 0s-1.6-4.1-0.1-5.6l3-3c0.1-0.1 0.3-0.3 0.4-0.4 0.9-0.6 1.9-0.9 3-0.8 1.1 0.2 2 0.7 2.6 1.6 0.3 0.4 1 0.5 1.4 0.2s0.5-1 0.2-1.4c-1-1.3-2.4-2.1-3.9-2.3-1.5-0.3-3.1 0.1-4.4 1.1-0.2 0.2-0.4 0.4-0.6 0.6l-3 3c-2.3 2.4-2.2 6.2 0.1 8.5 1.2 1.1 2.7 1.7 4.2 1.7s3-0.6 4.2-1.7l1.7-1.7c0.4-0.4 0.4-1 0-1.4s-1.1-0.5-1.5-0.1z"></path>
</symbol>
<symbol id="icon-map-pin" viewBox="0 0 24 24">
<title>map-pin</title>
<path d="M12 0c-5.5 0-10 4.5-10 10 0 7.4 9.1 13.6 9.4 13.8 0.2 0.1 0.4 0.2 0.6 0.2s0.4-0.1 0.6-0.2c0.3-0.2 9.4-6.4 9.4-13.8 0-5.5-4.5-10-10-10zM12 21.8c-1.9-1.4-8-6.4-8-11.8 0-4.4 3.6-8 8-8s8 3.6 8 8c0 5.4-6.1 10.4-8 11.8z"></path>
<path d="M12 6c-2.2 0-4 1.8-4 4s1.8 4 4 4c2.2 0 4-1.8 4-4s-1.8-4-4-4zM12 12c-1.1 0-2-0.9-2-2s0.9-2 2-2c1.1 0 2 0.9 2 2s-0.9 2-2 2z"></path>
</symbol>
<symbol id="icon-menu" viewBox="0 0 24 24">
<title>menu</title>
<path d="M21 11h-18c-0.6 0-1 0.4-1 1s0.4 1 1 1h18c0.6 0 1-0.4 1-1s-0.4-1-1-1z"></path>
<path d="M3 7h18c0.6 0 1-0.4 1-1s-0.4-1-1-1h-18c-0.6 0-1 0.4-1 1s0.4 1 1 1z"></path>
<path d="M21 17h-18c-0.6 0-1 0.4-1 1s0.4 1 1 1h18c0.6 0 1-0.4 1-1s-0.4-1-1-1z"></path>
</symbol>
<symbol id="icon-minus" viewBox="0 0 24 24">
<title>minus</title>
<path d="M19 11h-14c-0.6 0-1 0.4-1 1s0.4 1 1 1h14c0.6 0 1-0.4 1-1s-0.4-1-1-1z"></path>
</symbol>
<symbol id="icon-package" viewBox="0 0 24 24">
<title>package</title>
<path d="M21.3 4.6l-8-4c0 0 0 0 0 0-0.8-0.4-1.8-0.4-2.7 0l-8 4c-1 0.5-1.6 1.5-1.6 2.6v9.5c0 1.1 0.6 2.2 1.7 2.7l8 4c0.4 0.2 0.9 0.3 1.3 0.3 0.5 0 0.9-0.1 1.3-0.3l8-4c1-0.5 1.7-1.5 1.7-2.7v-9.5c0-1.1-0.6-2.1-1.7-2.6zM11.6 2.3c0.1-0.1 0.3-0.1 0.4-0.1 0.2 0 0.3 0 0.4 0.1l7.4 3.7-2.8 1.4-7.8-3.9 2.4-1.2zM12 9.9l-7.8-3.9 2.8-1.4 7.8 3.9-2.8 1.4zM3.5 17.7c-0.3-0.2-0.5-0.6-0.5-0.9v-9.2l8 4v9.8l-7.5-3.7zM20.4 17.7l-7.4 3.7v-9.8l8-4v9.2c0 0.4-0.2 0.7-0.6 0.9z"></path>
</symbol>
<symbol id="icon-paperclip" viewBox="0 0 24 24">
<title>paperclip</title>
<path d="M22.1 10.3c-0.4-0.4-1-0.4-1.4 0l-9.2 9.2c-2 2-5.1 2-7.1 0s-2-5.1 0-7.1l9.2-9.2c1.1-1.1 3.1-1.1 4.2 0 1.2 1.2 1.2 3.1 0 4.2l-9.2 9.2c-0.4 0.4-1 0.4-1.4 0-0.1-0.1-0.2-0.3-0.2-0.6s0.1-0.5 0.3-0.7l8.5-8.5c0.4-0.4 0.4-1 0-1.4s-1-0.4-1.4 0l-8.5 8.5c-0.6 0.5-0.9 1.3-0.9 2.1s0.3 1.6 0.9 2.1c1.2 1.2 3.1 1.2 4.2 0l9.2-9.2c2-2 2-5.1 0-7.1-0.9-0.9-2.2-1.5-3.5-1.5s-2.6 0.5-3.5 1.5l-9.2 9.2c-2.7 2.7-2.7 7.2 0 9.9 1.4 1.4 3.2 2 5 2s3.6-0.7 5-2l9.2-9.2c0.2-0.3 0.2-1-0.2-1.4z"></path>
</symbol>
<symbol id="icon-phone-call" viewBox="0 0 24 24">
<title>phone-call</title>
<path d="M20.4 13.9c-0.9-0.1-1.8-0.3-2.6-0.6-1.1-0.4-2.3-0.1-3.2 0.7l-0.7 0.7c-1.8-1.2-3.4-2.7-4.6-4.6l0.7-0.7c0.8-0.8 1.1-2.1 0.7-3.2-0.3-0.8-0.5-1.7-0.6-2.6-0.2-1.5-1.5-2.6-3-2.6 0 0 0 0 0 0h-3c-0.1 0-0.2 0-0.3 0-0.8 0.1-1.5 0.5-2 1.1s-0.7 1.4-0.7 2.2c0.3 3.2 1.5 6.4 3.2 9.1 1.6 2.5 3.8 4.7 6.3 6.3 2.7 1.8 5.9 2.9 9.1 3.2 0.1 0 0.2 0 0.3 0 0 0 0 0 0 0 0.8 0 1.6-0.3 2.1-0.9s0.9-1.3 0.9-2.1v-3c0-1.5-1.1-2.8-2.6-3zM21 16.9v3c0 0.3-0.1 0.5-0.3 0.7s-0.4 0.3-0.8 0.3c-2.9-0.3-5.7-1.3-8.2-2.9-2.3-1.4-4.2-3.4-5.7-5.7-1.6-2.5-2.6-5.3-2.9-8.2 0-0.3 0.1-0.5 0.2-0.7 0.2-0.2 0.5-0.4 0.8-0.4h3c0 0 0 0 0 0 0.5 0 0.9 0.4 1 0.9 0.1 1 0.4 2.1 0.8 3 0.1 0.4 0 0.8-0.2 1.1l-1.3 1.2c-0.3 0.3-0.4 0.8-0.2 1.2 1.5 2.7 3.7 4.9 6.4 6.4 0.4 0.2 0.9 0.2 1.2-0.2l1.3-1.3c0.3-0.3 0.7-0.4 1.1-0.2 1 0.4 2 0.6 3 0.8 0.4 0.1 0.8 0.5 0.8 1 0 0 0 0 0 0z"></path>
<path d="M15.2 0c-0.5-0.1-1 0.3-1.1 0.9-0.1 0.5 0.3 1 0.9 1.1 3.7 0.4 6.6 3.3 7.1 7.1 0.1 0.5 0.5 0.9 1 0.9 0 0 0.1 0 0.1 0 0.5-0.1 0.9-0.6 0.9-1.1-0.6-4.7-4.3-8.4-8.9-8.9z"></path>
<path d="M18 9.1c0.1 0.5 0.5 0.8 1 0.8 0.1 0 0.1 0 0.2 0 0.5-0.1 0.9-0.6 0.8-1.2-0.5-2.4-2.3-4.3-4.7-4.7-0.5-0.1-1.1 0.2-1.2 0.8s0.2 1.1 0.8 1.2c1.6 0.3 2.8 1.5 3.1 3.1z"></path>
</symbol>
<symbol id="icon-plus" viewBox="0 0 24 24">
<title>plus</title>
<path d="M19 11h-6v-6c0-0.6-0.4-1-1-1s-1 0.4-1 1v6h-6c-0.6 0-1 0.4-1 1s0.4 1 1 1h6v6c0 0.6 0.4 1 1 1s1-0.4 1-1v-6h6c0.6 0 1-0.4 1-1s-0.4-1-1-1z"></path>
</symbol>
<symbol id="icon-search" viewBox="0 0 24 24">
<title>search</title>
<path d="M21.7 20.3l-3.7-3.7c1.2-1.5 2-3.5 2-5.6 0-5-4-9-9-9s-9 4-9 9c0 5 4 9 9 9 2.1 0 4.1-0.7 5.6-2l3.7 3.7c0.2 0.2 0.5 0.3 0.7 0.3s0.5-0.1 0.7-0.3c0.4-0.4 0.4-1 0-1.4zM4 11c0-3.9 3.1-7 7-7s7 3.1 7 7c0 1.9-0.8 3.7-2 4.9 0 0 0 0 0 0s0 0 0 0c-1.3 1.3-3 2-4.9 2-4 0.1-7.1-3-7.1-6.9z"></path>
</symbol>
<symbol id="icon-send" viewBox="0 0 24 24">
<title>send</title>
<path d="M23 1.9c0-0.1 0-0.2-0.1-0.3 0 0 0-0.1 0-0.1 0-0.1-0.1-0.2-0.2-0.3s-0.2-0.1-0.3-0.2c0 0-0.1 0-0.1 0-0.1 0-0.2 0-0.3-0.1 0 0.1 0 0.1 0 0.1-0.1 0-0.2 0-0.3 0.1l-20 7c-0.4 0.1-0.7 0.4-0.7 0.9 0 0.4 0.2 0.8 0.6 1l8.6 3.8 3.8 8.6c0.2 0.4 0.5 0.6 0.9 0.6 0 0 0 0 0 0 0.4 0 0.8-0.3 0.9-0.7l7-20c0.2-0.1 0.2-0.2 0.2-0.4 0 0.1 0 0.1 0 0zM18.2 4.4l-7.4 7.4-6.1-2.7 13.5-4.7zM14.9 19.3l-2.7-6.1 7.4-7.4-4.7 13.5z"></path>
</symbol>
<symbol id="icon-settings" viewBox="0 0 24 24">
<title>settings</title>
<path d="M12 8c-2.2 0-4 1.8-4 4s1.8 4 4 4c2.2 0 4-1.8 4-4s-1.8-4-4-4zM12 14c-1.1 0-2-0.9-2-2s0.9-2 2-2c1.1 0 2 0.9 2 2s-0.9 2-2 2z"></path>
<path d="M20.3 15.4c0.1-0.2 0.3-0.4 0.7-0.4 1.7 0 3-1.3 3-3s-1.3-3-3-3h-0.2c-0.2 0-0.4-0.1-0.5-0.3 0-0.1 0-0.1-0.1-0.2-0.1-0.2-0.1-0.5 0.2-0.8 1.2-1.2 1.2-3.1 0-4.2v0c0 0 0 0 0 0-0.6-0.6-1.3-0.9-2.1-0.9 0 0 0 0 0 0-0.8 0-1.6 0.3-2.2 0.9-0.2 0.2-0.5 0.2-0.7 0.1-0.2 0-0.4-0.3-0.4-0.6 0-1.7-1.3-3-3-3s-3 1.3-3 3v0.2c0 0.2-0.1 0.4-0.3 0.5-0.1 0-0.1 0-0.2 0.1-0.2 0.1-0.5 0-0.8-0.2-1.2-1.2-3.1-1.2-4.2 0-1.2 1.2-1.2 3.1 0.1 4.3 0.2 0.2 0.2 0.5 0.1 0.8-0.1 0.2-0.4 0.4-0.7 0.4-1.7 0-3 1.3-3 3s1.3 3 3 3h0.2c0.3 0 0.5 0.2 0.6 0.4s0.1 0.5-0.2 0.8c-0.6 0.6-0.9 1.3-0.9 2.1s0.3 1.5 0.9 2.1c0 0 0 0 0 0 1.2 1.2 3.1 1.2 4.3-0.1 0.2-0.2 0.5-0.2 0.8-0.1s0.4 0.3 0.4 0.7c0 1.7 1.3 3 3 3s3-1.3 3-3v-0.2c0-0.3 0.2-0.5 0.4-0.6s0.5-0.1 0.8 0.2c1.2 1.2 3.1 1.2 4.2 0 1.2-1.2 1.2-3.1-0.1-4.3-0.1-0.2-0.2-0.5-0.1-0.7 0 0 0 0 0 0zM18.5 14.6c-0.4 1-0.2 2.1 0.6 3 0.2 0.2 0.3 0.4 0.3 0.7s-0.1 0.5-0.3 0.7c-0.2 0.2-0.4 0.3-0.7 0.3 0 0 0 0 0 0-0.3 0-0.5-0.1-0.8-0.4-0.8-0.8-1.9-1-2.9-0.5-1 0.4-1.6 1.4-1.6 2.4v0.2c0 0.6-0.4 1-1 1s-1-0.4-1-1c0 0 0-0.1 0-0.1 0-1.1-0.7-2-1.7-2.4-0.3-0.2-0.7-0.2-1.1-0.2-0.7 0-1.4 0.3-1.9 0.8-0.4 0.4-1 0.4-1.4 0 0 0 0 0 0 0v0c-0.2-0.2-0.3-0.4-0.3-0.7s0.1-0.5 0.4-0.8c0.8-0.8 1-1.9 0.5-2.9-0.4-1-1.4-1.6-2.4-1.6h-0.2c-0.6 0-1-0.4-1-1s0.4-1 1-1c0 0 0.1 0 0.1 0 1.1 0 2-0.7 2.4-1.7s0.2-2.1-0.6-3c-0.4-0.4-0.4-1 0-1.4s1-0.4 1.5 0.1c0.7 0.7 1.8 0.9 2.7 0.6 0.1 0 0.2 0 0.3-0.1 1-0.4 1.6-1.4 1.6-2.4v-0.2c0-0.6 0.4-1 1-1s1 0.4 1 1.1c0 1.1 0.6 2 1.6 2.4s2.1 0.2 3-0.6c0.2-0.2 0.4-0.3 0.7-0.3v0c0.3 0 0.5 0.1 0.7 0.3 0 0 0 0 0 0 0.4 0.4 0.4 1-0.1 1.5-0.7 0.7-0.9 1.8-0.6 2.7 0 0.1 0 0.2 0.1 0.3 0.4 1 1.4 1.6 2.4 1.6h0.2c0.6 0 1 0.4 1 1s-0.4 1-1.1 1c-1 0-2 0.6-2.4 1.6z"></path>
</symbol>
<symbol id="icon-share-2" viewBox="0 0 24 24">
<title>share-2</title>
<path d="M18 15c-1.1 0-2.1 0.5-2.8 1.2l-5.3-3.1c0-0.4 0.1-0.7 0.1-1.1s-0.1-0.7-0.2-1.1l5.3-3.1c0.8 0.7 1.8 1.2 2.9 1.2 2.2 0 4-1.8 4-4s-1.8-4-4-4-4 1.8-4 4c0 0.4 0.1 0.7 0.2 1.1l-5.4 3.1c-0.7-0.7-1.7-1.2-2.8-1.2-2.2 0-4 1.8-4 4s1.8 4 4 4c1.1 0 2.1-0.5 2.8-1.2l5.3 3.1c0 0.4-0.1 0.7-0.1 1.1 0 2.2 1.8 4 4 4s4-1.8 4-4-1.8-4-4-4zM18 3c1.1 0 2 0.9 2 2s-0.9 2-2 2-2-0.9-2-2 0.9-2 2-2zM6 14c-1.1 0-2-0.9-2-2s0.9-2 2-2 2 0.9 2 2c0 1.1-0.9 2-2 2zM18 21c-1.1 0-2-0.9-2-2 0-0.4 0.1-0.7 0.3-1 0 0 0 0 0 0s0 0 0 0c0.3-0.6 1-1 1.7-1 1.1 0 2 0.9 2 2s-0.9 2-2 2z"></path>
</symbol>
<symbol id="icon-shield" viewBox="0 0 24 24">
<title>shield</title>
<path d="M20.4 4.1l-8-3c-0.2-0.1-0.5-0.1-0.7 0l-8 3c-0.4 0.1-0.7 0.5-0.7 0.9v7c0 6.5 8.2 10.7 8.6 10.9 0.1 0.1 0.2 0.1 0.4 0.1s0.3 0 0.4-0.1c0.4-0.2 8.6-4.4 8.6-10.9v-7c0-0.4-0.3-0.8-0.6-0.9zM19 12c0 4.5-5.4 7.9-7 8.9-1.6-0.9-7-4.3-7-8.9v-6.3l7-2.6 7 2.6v6.3z"></path>
</symbol>
<symbol id="icon-shopping-bag" viewBox="0 0 24 24">
<title>shopping-bag</title>
<path d="M21.9 5.6c0 0 0-0.1-0.1-0.1 0 0 0-0.1-0.1-0.1l-3-4c-0.1-0.3-0.4-0.4-0.7-0.4h-12c-0.3 0-0.6 0.1-0.8 0.4l-3 4c0 0 0 0.1-0.1 0.1 0 0 0 0.1-0.1 0.1 0 0.2 0 0.3 0 0.4v14c0 1.7 1.3 3 3 3h14c1.7 0 3-1.3 3-3v-14c0-0.1 0-0.2-0.1-0.4zM6.5 3h11l1.5 2h-14l1.5-2zM19 21h-14c-0.6 0-1-0.4-1-1v-13h16v13c0 0.6-0.4 1-1 1z"></path>
<path d="M16 9c-0.6 0-1 0.4-1 1 0 1.7-1.3 3-3 3s-3-1.3-3-3c0-0.6-0.4-1-1-1s-1 0.4-1 1c0 2.8 2.2 5 5 5s5-2.2 5-5c0-0.6-0.4-1-1-1z"></path>
</symbol>
<symbol id="icon-shopping-cart" viewBox="0 0 24 24">
<title>shopping-cart</title>
<path d="M11 21c0 1.105-0.895 2-2 2s-2-0.895-2-2c0-1.105 0.895-2 2-2s2 0.895 2 2z"></path>
<path d="M22 21c0 1.105-0.895 2-2 2s-2-0.895-2-2c0-1.105 0.895-2 2-2s2 0.895 2 2z"></path>
<path d="M23.8 5.4c-0.2-0.3-0.5-0.4-0.8-0.4h-16.2l-0.8-4.2c-0.1-0.5-0.5-0.8-1-0.8h-4c-0.6 0-1 0.4-1 1s0.4 1 1 1h3.2l0.8 4.2c0 0 0 0.1 0 0.1l1.7 8.3c0.3 1.4 1.5 2.4 2.9 2.4 0 0 0 0 0.1 0h9.7c1.5 0 2.7-1 3-2.4l1.6-8.4c0-0.3 0-0.6-0.2-0.8zM20.4 14.2c-0.1 0.5-0.5 0.8-1 0.8h-9.7c-0.5 0-0.9-0.3-1-0.8l-1.5-7.2h14.6l-1.4 7.2z"></path>
</symbol>
<symbol id="icon-slash" viewBox="0 0 24 24">
<title>slash</title>
<path d="M19.8 19.8c2-2 3.2-4.7 3.2-7.8 0-6.1-4.9-11-11-11-3 0-5.8 1.2-7.8 3.2 0 0 0 0 0 0s0 0 0 0c-2 2-3.2 4.8-3.2 7.8 0 6.1 4.9 11 11 11 3 0 5.8-1.2 7.8-3.2 0 0 0 0 0 0s0 0 0 0zM21 12c0 2.1-0.7 4.1-2 5.6l-12.6-12.6c1.5-1.3 3.5-2 5.6-2 5 0 9 4 9 9zM3 12c0-2.1 0.7-4.1 2-5.6l12.6 12.6c-1.5 1.2-3.5 2-5.6 2-5 0-9-4-9-9z"></path>
</symbol>
<symbol id="icon-sliders" viewBox="0 0 24 24">
<title>sliders</title>
<path d="M4 11c0.6 0 1-0.4 1-1v-7c0-0.6-0.4-1-1-1s-1 0.4-1 1v7c0 0.6 0.4 1 1 1z"></path>
<path d="M12 11c-0.6 0-1 0.4-1 1v9c0 0.6 0.4 1 1 1s1-0.4 1-1v-9c0-0.6-0.4-1-1-1z"></path>
<path d="M20 13c0.6 0 1-0.4 1-1v-9c0-0.6-0.4-1-1-1s-1 0.4-1 1v9c0 0.6 0.4 1 1 1z"></path>
<path d="M7 13h-6c-0.6 0-1 0.4-1 1s0.4 1 1 1h2v6c0 0.6 0.4 1 1 1s1-0.4 1-1v-6h2c0.6 0 1-0.4 1-1s-0.4-1-1-1z"></path>
<path d="M15 7h-2v-4c0-0.6-0.4-1-1-1s-1 0.4-1 1v4h-2c-0.6 0-1 0.4-1 1s0.4 1 1 1h6c0.6 0 1-0.4 1-1s-0.4-1-1-1z"></path>
<path d="M23 15h-6c-0.6 0-1 0.4-1 1s0.4 1 1 1h2v4c0 0.6 0.4 1 1 1s1-0.4 1-1v-4h2c0.6 0 1-0.4 1-1s-0.4-1-1-1z"></path>
</symbol>
<symbol id="icon-star" viewBox="0 0 24 24">
<title>star</title>
<path d="M23 9c-0.1-0.4-0.4-0.6-0.8-0.7l-6.4-0.9-2.9-5.8c-0.3-0.7-1.5-0.7-1.8 0l-2.9 5.7-6.3 1c-0.4 0-0.7 0.3-0.9 0.7-0.1 0.4 0 0.8 0.3 1l4.6 4.5-1.1 6.4c-0.1 0.4 0.1 0.8 0.4 1s0.7 0.3 1.1 0.1l5.7-3 5.7 3c0.2 0 0.3 0 0.5 0s0.4-0.1 0.6-0.2c0.3-0.2 0.5-0.6 0.4-1l-1.1-6.4 4.6-4.5c0.3-0.2 0.4-0.6 0.3-0.9zM16.3 13.4c-0.2 0.3-0.3 0.6-0.3 0.9l0.8 4.9-4.4-2.3c-0.3-0.2-0.6-0.2-0.9 0l-4.4 2.3 0.9-4.9c0-0.3-0.1-0.6-0.3-0.9l-3.6-3.4 4.9-0.7c0.3 0 0.6-0.3 0.8-0.5l2.2-4.5 2.2 4.4c0.1 0.3 0.4 0.5 0.8 0.5l4.9 0.7-3.6 3.5z"></path>
</symbol>
<symbol id="icon-tag" viewBox="0 0 24 24">
<title>tag</title>
<path d="M21.3 9.9l-8.6-8.6c-0.2-0.2-0.4-0.3-0.7-0.3h-10c-0.6 0-1 0.4-1 1v10c0 0.3 0.1 0.5 0.3 0.7l8.6 8.6c0.6 0.6 1.4 0.9 2.1 0.9 0.8 0 1.5-0.3 2.1-0.9l7.2-7.2c0 0 0 0 0 0 1.2-1.2 1.2-3 0-4.2zM19.9 12.7l-7.2 7.2c-0.4 0.4-1 0.4-1.4 0l-8.3-8.3v-8.6h8.6l8.3 8.3c0.4 0.4 0.4 1 0 1.4z"></path>
<path d="M6.3 6.3c-0.2 0.2-0.3 0.4-0.3 0.7s0.1 0.5 0.3 0.7c0.2 0.2 0.4 0.3 0.7 0.3s0.5-0.1 0.7-0.3c0.2-0.2 0.3-0.4 0.3-0.7s-0.1-0.5-0.3-0.7c-0.4-0.4-1-0.4-1.4 0z"></path>
</symbol>
<symbol id="icon-target" viewBox="0 0 24 24">
<title>target</title>
<path d="M12 1c-6.1 0-11 4.9-11 11s4.9 11 11 11 11-4.9 11-11-4.9-11-11-11zM12 21c-5 0-9-4-9-9s4-9 9-9c5 0 9 4 9 9s-4 9-9 9z"></path>
<path d="M12 5c-3.9 0-7 3.1-7 7s3.1 7 7 7c3.9 0 7-3.1 7-7s-3.1-7-7-7zM12 17c-2.8 0-5-2.2-5-5s2.2-5 5-5 5 2.2 5 5-2.2 5-5 5z"></path>
<path d="M12 9c-1.7 0-3 1.3-3 3s1.3 3 3 3 3-1.3 3-3-1.3-3-3-3zM12 13c-0.6 0-1-0.4-1-1s0.4-1 1-1 1 0.4 1 1-0.4 1-1 1z"></path>
</symbol>
<symbol id="icon-thumbs-up" viewBox="0 0 24 24">
<title>thumbs-up</title>
<path d="M22.1 9.2c-0.5-0.6-1.2-1.1-2-1.2-0.2 0-0.3 0-0.5 0h-4.6v-3c0-2.2-1.8-4-4-4-0.4 0-0.8 0.2-0.9 0.6l-3.7 8.4h-2.4c-1.7 0-3 1.3-3 3v7c0 1.7 1.3 3 3 3h14.3c0 0 0 0 0 0 1.5 0 2.7-1.1 3-2.5l1.4-9c0.1-0.8-0.1-1.6-0.6-2.3zM6 21h-2c-0.6 0-1-0.4-1-1v-7c0-0.6 0.4-1 1-1h2v9zM19.3 20.2c-0.1 0.5-0.5 0.8-1 0.8 0 0 0 0 0 0h-10.3v-9.8l3.6-8.1c0.8 0.3 1.4 1 1.4 1.9v4c0 0.6 0.4 1 1 1h5.7c0.1 0 0.1 0 0.2 0 0.3 0 0.5 0.2 0.7 0.4s0.2 0.5 0.2 0.7l-1.5 9.1z"></path>
</symbol>
<symbol id="icon-toggle-left" viewBox="0 0 24 24">
<title>toggle-left</title>
<path d="M16 4h-8c-4.4 0-8 3.6-8 8s3.6 8 8 8h8c4.4 0 8-3.6 8-8s-3.6-8-8-8zM16 18h-8c-3.3 0-6-2.7-6-6s2.7-6 6-6h8c3.3 0 6 2.7 6 6s-2.7 6-6 6z"></path>
<path d="M8 8c-2.2 0-4 1.8-4 4s1.8 4 4 4 4-1.8 4-4c0-2.2-1.8-4-4-4zM8 14c-1.1 0-2-0.9-2-2s0.9-2 2-2 2 0.9 2 2c0 1.1-0.9 2-2 2z"></path>
</symbol>
<symbol id="icon-toggle-right" viewBox="0 0 24 24">
<title>toggle-right</title>
<path d="M16 4h-8c-4.4 0-8 3.6-8 8s3.6 8 8 8h8c4.4 0 8-3.6 8-8s-3.6-8-8-8zM16 18h-8c-3.3 0-6-2.7-6-6s2.7-6 6-6h8c3.3 0 6 2.7 6 6s-2.7 6-6 6z"></path>
<path d="M16 8c-2.2 0-4 1.8-4 4s1.8 4 4 4 4-1.8 4-4c0-2.2-1.8-4-4-4zM16 14c-1.1 0-2-0.9-2-2s0.9-2 2-2 2 0.9 2 2c0 1.1-0.9 2-2 2z"></path>
</symbol>
<symbol id="icon-trash-2" viewBox="0 0 24 24">
<title>trash-2</title>
<path d="M21 5h-4v-1c0-1.7-1.3-3-3-3h-4c-1.7 0-3 1.3-3 3v1h-4c-0.6 0-1 0.4-1 1s0.4 1 1 1h1v13c0 1.7 1.3 3 3 3h10c1.7 0 3-1.3 3-3v-13h1c0.6 0 1-0.4 1-1s-0.4-1-1-1zM9 4c0-0.6 0.4-1 1-1h4c0.6 0 1 0.4 1 1v1h-6v-1zM18 20c0 0.6-0.4 1-1 1h-10c-0.6 0-1-0.4-1-1v-13h12v13z"></path>
<path d="M10 10c-0.6 0-1 0.4-1 1v6c0 0.6 0.4 1 1 1s1-0.4 1-1v-6c0-0.6-0.4-1-1-1z"></path>
<path d="M14 10c-0.6 0-1 0.4-1 1v6c0 0.6 0.4 1 1 1s1-0.4 1-1v-6c0-0.6-0.4-1-1-1z"></path>
</symbol>
<symbol id="icon-trending-up" viewBox="0 0 24 24">
<title>trending-up</title>
<path d="M23.9 5.6c-0.1-0.2-0.3-0.4-0.5-0.5-0.1-0.1-0.3-0.1-0.4-0.1h-6c-0.6 0-1 0.4-1 1s0.4 1 1 1h3.6l-7.1 7.1-4.3-4.3c-0.4-0.4-1-0.4-1.4 0l-7.5 7.5c-0.4 0.4-0.4 1 0 1.4 0.2 0.2 0.4 0.3 0.7 0.3s0.5-0.1 0.7-0.3l6.8-6.8 4.3 4.3c0.4 0.4 1 0.4 1.4 0l7.8-7.8v3.6c0 0.6 0.4 1 1 1s1-0.4 1-1v-6c0-0.1 0-0.3-0.1-0.4z"></path>
</symbol>
<symbol id="icon-truck" viewBox="0 0 24 24">
<title>truck</title>
<path d="M23.7 10.3l-3-3c-0.2-0.2-0.4-0.3-0.7-0.3h-3v-4c0-0.6-0.4-1-1-1h-15c-0.6 0-1 0.4-1 1v13c0 0.6 0.4 1 1 1h1.4c-0.3 0.5-0.4 1-0.4 1.5 0 1.9 1.6 3.5 3.5 3.5s3.5-1.6 3.5-3.5c0-0.5-0.1-1-0.4-1.5h6.7c-0.2 0.5-0.4 1-0.4 1.5 0 1.9 1.6 3.5 3.5 3.5s3.5-1.6 3.5-3.5c0-0.5-0.1-1-0.4-1.5h1.5c0.6 0 1-0.4 1-1v-5c0-0.3-0.1-0.5-0.3-0.7zM2 4h13v11h-13v-11zM7 18.5c0 0.8-0.7 1.5-1.5 1.5s-1.5-0.7-1.5-1.5 0.7-1.5 1.5-1.5 1.5 0.7 1.5 1.5zM20 18.5c0 0.8-0.7 1.5-1.5 1.5s-1.5-0.7-1.5-1.5 0.7-1.5 1.5-1.5 1.5 0.7 1.5 1.5zM22 15h-5v-6h2.6l2.4 2.4v3.6z"></path>
</symbol>
<symbol id="icon-twitter" viewBox="0 0 24 24">
<title>twitter</title>
<path d="M23.6 2.2c-0.3-0.2-0.8-0.2-1.1 0-0.7 0.5-1.5 0.9-2.3 1.2-2-1.8-5.1-1.9-7.2-0.1-1.3 1.1-2 2.6-2 4.2-2.9-0.2-5.5-1.7-7.2-4.1-0.2-0.3-0.5-0.4-0.9-0.4s-0.7 0.3-0.8 0.6c-0.1 0.1-1.1 2.5-1 5.4 0.1 2.5 1.1 5.7 4.8 8-1.5 0.7-3.2 1-4.9 1-0.4 0-0.9 0.3-1 0.7s0.1 0.9 0.5 1.1c2.5 1.4 5.2 2.1 7.7 2.1s4.9-0.6 7.1-1.9c4.3-2.4 6.7-7 6.7-12.5 0-0.2 0-0.3 0-0.5 1-1.1 1.7-2.4 2-3.8 0.1-0.4-0.1-0.8-0.4-1zM20.2 6c-0.2 0.2-0.3 0.6-0.3 0.9 0.1 0.2 0.1 0.4 0.1 0.6 0 4.8-2.1 8.7-5.7 10.8-2.8 1.6-6.1 2-9.4 1.2 1.3-0.4 2.5-0.9 3.6-1.7 0.4-0.2 0.5-0.5 0.5-0.9s-0.3-0.7-0.6-0.8c-5.8-2.6-5.6-7.5-5-10 2.2 2.2 5.3 3.5 8.6 3.4 0.5 0 1-0.5 1-1v-1c0-1 0.4-2 1.2-2.7 1.4-1.3 3.7-1.1 4.9 0.3 0.3 0.3 0.7 0.4 1 0.3 0.2-0.1 0.5-0.1 0.7-0.2-0.2 0.3-0.4 0.5-0.6 0.8z"></path>
</symbol>
<symbol id="icon-upload" viewBox="0 0 24 24">
<title>upload</title>
<path d="M21 14c-0.6 0-1 0.4-1 1v4c0 0.6-0.4 1-1 1h-14c-0.6 0-1-0.4-1-1v-4c0-0.6-0.4-1-1-1s-1 0.4-1 1v4c0 1.7 1.3 3 3 3h14c1.7 0 3-1.3 3-3v-4c0-0.6-0.4-1-1-1z"></path>
<path d="M7.7 8.7l3.3-3.3v9.6c0 0.6 0.4 1 1 1s1-0.4 1-1v-9.6l3.3 3.3c0.2 0.2 0.4 0.3 0.7 0.3s0.5-0.1 0.7-0.3c0.4-0.4 0.4-1 0-1.4l-5-5c-0.1-0.1-0.2-0.2-0.3-0.2-0.2-0.1-0.5-0.1-0.8 0-0.1 0.1-0.2 0.1-0.3 0.2l-5 5c-0.4 0.4-0.4 1 0 1.4s1 0.4 1.4 0z"></path>
</symbol>
<symbol id="icon-user" viewBox="0 0 24 24">
<title>user</title>
<path d="M16 14h-8c-2.8 0-5 2.2-5 5v2c0 0.6 0.4 1 1 1s1-0.4 1-1v-2c0-1.7 1.3-3 3-3h8c1.7 0 3 1.3 3 3v2c0 0.6 0.4 1 1 1s1-0.4 1-1v-2c0-2.8-2.2-5-5-5z"></path>
<path d="M12 12c2.8 0 5-2.2 5-5s-2.2-5-5-5-5 2.2-5 5 2.2 5 5 5zM12 4c1.7 0 3 1.3 3 3s-1.3 3-3 3-3-1.3-3-3 1.3-3 3-3z"></path>
</symbol>
<symbol id="icon-user-check" viewBox="0 0 24 24">
<title>user-check</title>
<path d="M12 14h-7c-2.8 0-5 2.2-5 5v2c0 0.6 0.4 1 1 1s1-0.4 1-1v-2c0-1.7 1.3-3 3-3h7c1.7 0 3 1.3 3 3v2c0 0.6 0.4 1 1 1s1-0.4 1-1v-2c0-2.8-2.2-5-5-5z"></path>
<path d="M8.5 12c2.8 0 5-2.2 5-5s-2.2-5-5-5-5 2.2-5 5 2.2 5 5 5zM8.5 4c1.7 0 3 1.3 3 3s-1.3 3-3 3-3-1.3-3-3 1.3-3 3-3z"></path>
<path d="M23.7 8.3c-0.4-0.4-1-0.4-1.4 0l-3.3 3.3-1.3-1.3c-0.4-0.4-1-0.4-1.4 0s-0.4 1 0 1.4l2 2c0.2 0.2 0.5 0.3 0.7 0.3s0.5-0.1 0.7-0.3l4-4c0.4-0.4 0.4-1 0-1.4z"></path>
</symbol>
<symbol id="icon-user-minus" viewBox="0 0 24 24">
<title>user-minus</title>
<path d="M12 14h-7c-2.8 0-5 2.2-5 5v2c0 0.6 0.4 1 1 1s1-0.4 1-1v-2c0-1.7 1.3-3 3-3h7c1.7 0 3 1.3 3 3v2c0 0.6 0.4 1 1 1s1-0.4 1-1v-2c0-2.8-2.2-5-5-5z"></path>
<path d="M8.5 12c2.8 0 5-2.2 5-5s-2.2-5-5-5-5 2.2-5 5 2.2 5 5 5zM8.5 4c1.7 0 3 1.3 3 3s-1.3 3-3 3-3-1.3-3-3 1.3-3 3-3z"></path>
<path d="M23 10h-6c-0.6 0-1 0.4-1 1s0.4 1 1 1h6c0.6 0 1-0.4 1-1s-0.4-1-1-1z"></path>
</symbol>
<symbol id="icon-user-plus" viewBox="0 0 24 24">
<title>user-plus</title>
<path d="M12 14h-7c-2.8 0-5 2.2-5 5v2c0 0.6 0.4 1 1 1s1-0.4 1-1v-2c0-1.7 1.3-3 3-3h7c1.7 0 3 1.3 3 3v2c0 0.6 0.4 1 1 1s1-0.4 1-1v-2c0-2.8-2.2-5-5-5z"></path>
<path d="M8.5 12c2.8 0 5-2.2 5-5s-2.2-5-5-5-5 2.2-5 5 2.2 5 5 5zM8.5 4c1.7 0 3 1.3 3 3s-1.3 3-3 3-3-1.3-3-3 1.3-3 3-3z"></path>
<path d="M23 10h-2v-2c0-0.6-0.4-1-1-1s-1 0.4-1 1v2h-2c-0.6 0-1 0.4-1 1s0.4 1 1 1h2v2c0 0.6 0.4 1 1 1s1-0.4 1-1v-2h2c0.6 0 1-0.4 1-1s-0.4-1-1-1z"></path>
</symbol>
<symbol id="icon-user-x" viewBox="0 0 24 24">
<title>user-x</title>
<path d="M12 14h-7c-2.8 0-5 2.2-5 5v2c0 0.6 0.4 1 1 1s1-0.4 1-1v-2c0-1.7 1.3-3 3-3h7c1.7 0 3 1.3 3 3v2c0 0.6 0.4 1 1 1s1-0.4 1-1v-2c0-2.8-2.2-5-5-5z"></path>
<path d="M8.5 12c2.8 0 5-2.2 5-5s-2.2-5-5-5-5 2.2-5 5 2.2 5 5 5zM8.5 4c1.7 0 3 1.3 3 3s-1.3 3-3 3-3-1.3-3-3 1.3-3 3-3z"></path>
<path d="M21.9 10.5l1.8-1.8c0.4-0.4 0.4-1 0-1.4s-1-0.4-1.4 0l-1.8 1.8-1.8-1.8c-0.4-0.4-1-0.4-1.4 0s-0.4 1 0 1.4l1.8 1.8-1.8 1.8c-0.4 0.4-0.4 1 0 1.4 0.2 0.2 0.5 0.3 0.7 0.3s0.5-0.1 0.7-0.3l1.8-1.8 1.8 1.8c0.2 0.2 0.5 0.3 0.7 0.3s0.5-0.1 0.7-0.3c0.4-0.4 0.4-1 0-1.4l-1.8-1.8z"></path>
</symbol>
<symbol id="icon-watch" viewBox="0 0 24 24">
<title>watch</title>
<path d="M20 12c0-2.3-1-4.3-2.5-5.8l-0.3-3.5c-0.2-1.5-1.4-2.7-3-2.7 0 0 0 0 0 0h-4.4c-1.5 0-2.8 1.2-3 2.7l-0.3 3.5c-1.5 1.4-2.5 3.5-2.5 5.8s1 4.4 2.5 5.8l0.3 3.5c0.2 1.5 1.5 2.7 3 2.7 0 0 0 0 0 0h4.3c0 0 0 0 0 0 1.6 0 2.8-1.2 3-2.7l0.3-3.4c1.6-1.5 2.6-3.6 2.6-5.9zM8.8 2.9c0-0.5 0.5-0.9 1-0.9h4.4c0.5 0 1 0.4 1 0.9l0.2 1.8c-1.1-0.4-2.2-0.7-3.4-0.7s-2.3 0.3-3.3 0.7l0.1-1.8zM6 12c0-3.3 2.7-6 6-6s6 2.7 6 6-2.7 6-6 6-6-2.7-6-6zM15.2 21.1c0 0.5-0.5 0.9-1 0.9 0 0 0 0 0 0h-4.4c0 0 0 0 0 0-0.5 0-0.9-0.4-1-0.9l-0.2-1.8c1 0.5 2.1 0.7 3.3 0.7s2.3-0.3 3.3-0.7v1.8z"></path>
<path d="M12.8 14.2c0.2 0.2 0.5 0.3 0.7 0.3s0.5-0.1 0.7-0.3c0.4-0.4 0.4-1 0-1.4l-1.2-1.2v-2.6c0-0.6-0.4-1-1-1s-1 0.4-1 1v3c0 0.3 0.1 0.5 0.3 0.7l1.5 1.5z"></path>
</symbol>
<symbol id="icon-x-circle" viewBox="0 0 24 24">
<title>x-circle</title>
<path d="M12 1c-6.1 0-11 4.9-11 11s4.9 11 11 11 11-4.9 11-11-4.9-11-11-11zM12 21c-5 0-9-4-9-9s4-9 9-9c5 0 9 4 9 9s-4 9-9 9z"></path>
<path d="M15.7 8.3c-0.4-0.4-1-0.4-1.4 0l-2.3 2.3-2.3-2.3c-0.4-0.4-1-0.4-1.4 0s-0.4 1 0 1.4l2.3 2.3-2.3 2.3c-0.4 0.4-0.4 1 0 1.4 0.2 0.2 0.4 0.3 0.7 0.3s0.5-0.1 0.7-0.3l2.3-2.3 2.3 2.3c0.2 0.2 0.5 0.3 0.7 0.3s0.5-0.1 0.7-0.3c0.4-0.4 0.4-1 0-1.4l-2.3-2.3 2.3-2.3c0.4-0.4 0.4-1 0-1.4z"></path>
</symbol>
<symbol id="icon-zap" viewBox="0 0 24 24">
<title>zap</title>
<path d="M21.9 9.6c-0.2-0.4-0.5-0.6-0.9-0.6h-7.9l0.9-6.9c0.1-0.4-0.2-0.9-0.6-1-0.4-0.2-0.9-0.1-1.2 0.3l-10 12c-0.2 0.3-0.3 0.7-0.1 1.1 0.2 0.3 0.5 0.5 0.9 0.5h7.9l-0.9 6.9c-0.1 0.4 0.2 0.9 0.6 1 0.1 0.1 0.3 0.1 0.4 0.1 0.3 0 0.6-0.1 0.8-0.4l10-12c0.2-0.3 0.3-0.7 0.1-1zM12.4 18.7l0.6-4.6c0-0.3-0.1-0.6-0.2-0.8-0.2-0.2-0.5-0.3-0.8-0.3h-6.9l6.4-7.7-0.5 4.6c0 0.3 0.1 0.6 0.2 0.8 0.2 0.2 0.5 0.3 0.7 0.3h6.9l-6.4 7.7z"></path>
</symbol>
</defs>
</svg>
